<svg width="24" height="24" viewBox="0 0 24 24" fill="none" xmlns="http://www.w3.org/2000/svg">
<g id="simple-icons:googledrive">
<path id="Vector" d="M12.01 1.48499C9.928 1.48499 8.256 1.50499 8.267 1.53199C8.277 1.55199 9.975 4.53299 12.041 8.15199L15.801 14.726H19.561C21.642 14.726 23.314 14.706 23.303 14.679C23.298 14.659 21.595 11.678 19.528 8.05899L15.768 1.48499H12.01ZM7.25 3.21499C6.03029 5.31573 4.82028 7.42208 3.62 9.53399L0 15.868L1.89 19.166L3.775 22.463L7.395 16.128L11.013 9.79799L9.133 6.51099C8.1 4.70399 7.255 3.22099 7.25 3.21499ZM9.509 15.868L9.306 16.216C9.192 16.414 8.346 17.888 7.426 19.503C6.864 20.4953 6.29799 21.4853 5.728 22.473C5.718 22.499 8.968 22.515 12.95 22.515H20.194L21.99 19.358C22.982 17.624 23.84 16.128 23.896 16.035L24 15.868H16.751H9.509Z" fill="#387CC5"/>
</g>
</svg>
